<svg width="80" height="16" viewBox="0 0 80 16" fill="none" xmlns="http://www.w3.org/2000/svg">
<g clip-path="url(#clip0_4350_9778)">
<path d="M3.08833 10.5516C3.08833 11.4714 3.28917 12.1776 3.55167 12.6048C3.89583 13.1644 4.40917 13.4015 4.9325 13.4015C5.6075 13.4015 6.225 13.2331 7.415 11.5786C8.36833 10.2526 9.49167 8.3912 10.2475 7.22429L11.5275 5.24733C12.4167 3.87435 13.4458 2.34806 14.6258 1.31351C15.5892 0.46911 16.6283 0 17.6742 0C19.43 0 21.1025 1.02283 22.3825 2.94115C23.7833 5.04209 24.4633 7.68838 24.4633 10.4193C24.4633 12.0427 24.145 13.2356 23.6033 14.178C23.08 15.0894 22.06 16 20.3442 16V13.4015C21.8133 13.4015 22.18 12.0444 22.18 10.4913C22.18 8.27812 21.6667 5.82199 20.5358 4.06702C19.7333 2.8222 18.6933 2.06157 17.5492 2.06157C16.3117 2.06157 15.3158 2.99979 14.1967 4.67267C13.6017 5.56147 12.9908 6.64461 12.305 7.86681L11.55 9.21131C10.0333 11.9146 9.64917 12.5303 8.89083 13.5464C7.56167 15.3257 6.42667 16 4.9325 16C3.16 16 2.03917 15.2285 1.345 14.0658C0.778333 13.1183 0.5 11.8752 0.5 10.4586L3.08833 10.5516Z" fill="url(#paint0_linear_4350_9778)"/>
<path d="M2.54102 3.12461C3.72768 1.28586 5.44018 0 7.40435 0C8.54185 0 9.67268 0.338429 10.8535 1.30764C12.1452 2.36733 13.5218 4.11225 15.2393 6.98806L15.8552 8.0201C17.3418 10.5097 18.1877 11.7906 18.6827 12.3946C19.3193 13.1703 19.7652 13.4015 20.3443 13.4015C21.8135 13.4015 22.1802 12.0444 22.1802 10.4913L24.4635 10.4193C24.4635 12.0427 24.1452 13.2356 23.6035 14.178C23.0802 15.0894 22.0602 16 20.3443 16C19.2777 16 18.3327 15.7671 17.2877 14.7761C16.4843 14.0155 15.5452 12.6643 14.8227 11.4496L12.6735 7.84084C11.5952 6.02974 10.606 4.67937 10.0335 4.06785C9.41768 3.41026 8.62602 2.61613 7.36268 2.61613C6.34018 2.61613 5.47185 3.33738 4.74518 4.44063L2.54102 3.12461Z" fill="url(#paint1_linear_4350_9778)"/>
<path d="M7.3625 2.61613C6.34 2.61613 5.47167 3.33738 4.745 4.44063C3.7175 5.99958 3.08833 8.32168 3.08833 10.5516C3.08833 11.4714 3.28917 12.1776 3.55167 12.6048L1.345 14.0658C0.778333 13.1183 0.5 11.8752 0.5 10.4586C0.5 7.88272 1.20333 5.19791 2.54083 3.12461C3.7275 1.28586 5.44 0 7.40417 0L7.3625 2.61613Z" fill="url(#paint2_linear_4350_9778)"/>
<path d="M29.4941 0.505859H32.4883L37.5791 9.76408L42.6708 0.505859H45.6V15.7184H43.1575V4.05937L38.6925 12.1331H36.4008L31.9366 4.05937V15.7184H29.4941V0.505859ZM53.2533 6.1779C51.5016 6.1779 50.4466 7.50314 50.1941 9.14418H56.1391C56.0166 7.45371 55.0466 6.1779 53.2533 6.1779ZM47.7725 10.0791C47.7725 6.62607 49.9925 4.11298 53.2958 4.11298C56.545 4.11298 58.485 6.59424 58.485 10.2633V10.9377H50.1941C50.4883 12.7228 51.6666 13.9258 53.5666 13.9258C55.0825 13.9258 56.03 13.4608 56.9283 12.6106L58.2258 14.2081C57.0033 15.3381 55.4483 15.9898 53.48 15.9898C49.9041 15.9898 47.7725 13.3687 47.7725 10.0791ZM61.4466 6.3957H59.1983V4.38523H61.4466V1.06041H63.8033V4.38523H67.2191V6.3957H63.8033V11.4914C63.8033 13.2313 64.3566 13.8495 65.7166 13.8495C66.3375 13.8495 66.6933 13.7959 67.2191 13.708V15.6966C66.5641 15.8826 65.9391 15.9681 65.2625 15.9681C62.7183 15.9681 61.4466 14.5708 61.4466 11.7737V6.3957ZM77.1425 8.35088C76.6691 7.14963 75.6133 6.26502 74.0616 6.26502C72.045 6.26502 70.7541 7.70335 70.7541 10.0464C70.7541 12.3308 71.9425 13.8386 73.965 13.8386C75.555 13.8386 76.69 12.9088 77.1425 11.7519V8.35088ZM79.4991 15.7184H77.1858V14.1318C76.5391 15.0659 75.3625 15.9898 73.4566 15.9898C70.3916 15.9898 68.3433 13.4106 68.3433 10.0464C68.3433 6.65036 70.4408 4.11298 73.5866 4.11298C75.1416 4.11298 76.3616 4.7379 77.1858 5.84115V4.38523H79.4991V15.7184Z" fill="url(#paint3_linear_4350_9778)"/>
</g>
<defs>
<linearGradient id="paint0_linear_4350_9778" x1="12.4817" y1="0" x2="12.4817" y2="16" gradientUnits="userSpaceOnUse">
<stop stop-color="#F5F3FC" stop-opacity="0.8"/>
<stop offset="0.5" stop-color="#F5F3FC"/>
<stop offset="1" stop-color="#F5F3FC"/>
</linearGradient>
<linearGradient id="paint1_linear_4350_9778" x1="13.5023" y1="0" x2="13.5023" y2="16" gradientUnits="userSpaceOnUse">
<stop stop-color="#F5F3FC" stop-opacity="0.8"/>
<stop offset="0.5" stop-color="#F5F3FC"/>
<stop offset="1" stop-color="#F5F3FC"/>
</linearGradient>
<linearGradient id="paint2_linear_4350_9778" x1="3.95208" y1="0" x2="3.95208" y2="14.0658" gradientUnits="userSpaceOnUse">
<stop stop-color="#F5F3FC" stop-opacity="0.8"/>
<stop offset="0.5" stop-color="#F5F3FC"/>
<stop offset="1" stop-color="#F5F3FC"/>
</linearGradient>
<linearGradient id="paint3_linear_4350_9778" x1="54.4966" y1="0.505859" x2="54.4966" y2="15.9898" gradientUnits="userSpaceOnUse">
<stop stop-color="#F5F3FC" stop-opacity="0.8"/>
<stop offset="0.5" stop-color="#F5F3FC"/>
<stop offset="1" stop-color="#F5F3FC"/>
</linearGradient>
<clipPath id="clip0_4350_9778">
<rect width="79" height="16" fill="white" transform="translate(0.5)"/>
</clipPath>
</defs>
</svg>
